<svg width="2106" height="475" viewBox="0 0 2106 475" fill="none" xmlns="http://www.w3.org/2000/svg">
<path d="M2040.38 68.075C2039.31 68.075 2035.05 68.4367 2033.63 66.9897C2032.21 65.5422 2035.05 64.8187 2036.83 63.7335C2038.61 62.6482 2039.67 61.9247 2039.31 61.5625C2038.61 61.2007 2032.56 63.0099 2029.72 63.0099C2023.68 62.6482 2018 60.4772 2013.02 56.8592C2006.63 52.5181 1997.74 43.1116 1983.53 48.5384C1978.56 50.3472 1978.2 52.8799 1976.42 48.9002C1967.54 26.831 1937.69 0.0585938 1864.85 0.0585938H1783.13L1779.58 10.5505H1782.06C1823.28 10.5505 1898.97 10.1887 1912.47 16.3391C1927.39 23.2131 1931.65 27.1927 1925.97 39.1318C1921.7 48.1766 1914.95 36.961 1905.36 36.961C1900.39 36.2375 1895.06 36.961 1890.44 39.4936C1886.88 41.3025 1882.62 40.5789 1879.42 37.6846C1876.93 35.5139 1873.38 34.4285 1870.19 35.1521C1860.59 36.5992 1873.74 38.0464 1875.51 40.5789C1877.29 43.1116 1867.7 42.3877 1862.37 44.1969C1857.39 46.0057 1860.59 48.1766 1866.27 48.1766C1871.96 48.1766 1874.09 52.1564 1866.99 53.9652C1859.88 55.774 1864.85 57.5832 1870.19 56.8592C1875.87 56.1357 1877.29 56.8596 1876.94 63.0099C1876.94 69.1602 1881.2 64.8187 1881.91 60.839C1882.62 56.8592 1886.18 64.0952 1889.37 64.8187C1892.57 65.5422 1888.3 59.0302 1888.66 56.4975C1889.02 53.9652 1900.39 52.156 1903.94 55.0504C1907.49 57.9449 1915.66 61.2007 1912.11 68.4367C1910.69 71.3312 1912.82 73.5017 1897.54 82.9082C1882.26 92.3148 1869.83 82.9083 1859.17 79.652C1847.44 76.758 1835.36 77.8432 1824.35 82.5465C1820.8 85.0788 1817.6 87.9733 1814.4 91.2295H1906.78C1906.78 91.2295 1955.46 93.7618 1955.46 51.4325C1954.75 38.77 1949.06 26.831 1939.47 19.2334C1939.47 19.2334 1963.63 30.8106 1963.63 54.6887C1963.63 78.5667 1949.06 102.083 1906.43 102.083H1793.79C1789.17 104.615 1785.26 108.957 1783.13 114.022C1783.13 114.022 1779.94 127.046 1787.4 133.921C1804.09 149.839 1832.17 148.754 1853.13 148.392C1873.74 147.668 1896.48 131.75 1924.9 137.538C1950.13 142.603 1971.45 153.457 1977.13 162.14C1980.33 167.205 1972.87 171.908 1967.54 175.164C1963.99 177.335 1961.15 179.144 1963.28 179.868C1968.61 182.038 1975.36 176.25 1978.91 176.973C1982.46 177.697 1972.51 193.977 1977.49 192.892C1982.46 191.807 1989.22 179.868 1992.41 177.697C1995.61 175.526 2006.98 187.827 2011.24 186.38C2013.38 185.656 2011.6 181.315 2009.47 177.335C2007.34 173.355 2004.85 169.014 2006.98 169.014C2011.24 169.376 2022.26 169.737 2023.32 167.929C2024.04 166.481 2013.38 160.693 2009.82 159.969C2007.69 159.246 2011.95 158.16 2016.22 157.075C2020.48 155.989 2024.75 154.542 2023.68 153.819C2019.42 152.371 2015.15 152.01 2010.89 152.372C2003.78 153.095 1997.39 154.181 1993.83 144.774C1992.77 140.794 1990.64 137.176 1987.8 133.921C1982.11 128.856 1972.51 126.685 1975 122.343C1982.82 108.595 1986.02 93.0383 1984.6 77.4815C1983.18 68.075 2003.07 68.7985 2003.07 68.7985C2008.4 68.4367 2013.38 70.969 2016.58 75.6723C2018 77.4815 2011.96 82.5465 2011.24 86.888C2010.89 89.4203 2013.02 87.6115 2015.86 85.4406C2018.35 83.27 2020.13 82.1847 2021.19 82.1847C2022.97 83.27 2022.97 89.4203 2026.17 90.1438C2028.3 87.6115 2026.52 78.9285 2029.37 80.7373C2030.79 81.4612 2037.89 85.8027 2039.67 83.6318C2040.03 82.5465 2036.83 76.3962 2034.69 74.2252C2033.99 73.14 2039.31 71.6929 2041.45 71.3312C2047.84 70.969 2044.29 68.7985 2040.38 68.075Z" fill="#FCFEFF"/>
<path d="M479.671 28.2781C481.8 9.46507 470.075 0.0585938 444.847 0.0585938H322.265C292.063 0.0585938 272.521 13.083 264.349 39.4936L261.862 46.7292H407.896C410.383 46.7292 411.449 47.8149 411.094 49.6237V50.3472L391.196 111.49C390.486 114.022 387.998 115.469 385.511 115.469H305.921C303.434 115.469 302.368 114.384 302.723 112.937C302.723 112.575 302.723 111.851 303.078 111.49L321.199 56.8592H258.664L236.989 122.705C235.568 126.323 234.857 129.941 234.502 133.921C232.37 152.734 243.741 162.14 269.323 162.14H391.907C421.751 162.14 441.294 149.116 449.824 122.705L477.18 39.4936C478.247 35.8757 478.959 32.2578 479.671 28.2781Z" fill="#FCFEFF"/>
<path d="M1000.2 0.0585938L985.273 46.7292H1047.45L1062.73 0.0585938H1000.2Z" fill="#FCFEFF"/>
<path d="M981.638 57.207L947.172 162.126H1009.71L1044.17 57.207H981.638Z" fill="#FCFEFF"/>
<path d="M1283.65 30.0586C1284.01 28.2497 1284.36 26.8025 1284.72 24.9936C1286.85 8.35128 1276.19 0.030149 1253.45 0.030149H1130.16C1118.43 -0.33164 1106.7 2.56267 1096.76 8.71308C1087.87 14.8635 1081.12 24.27 1077.92 35.1236L1074.02 46.7008H1212.24C1214.72 46.7008 1215.79 47.7864 1215.43 49.5952V50.3187L1206.9 76.3678H1126.96L1133.35 57.193H1070.82L1036.35 162.112H1098.89L1113.81 115.441H1193.76L1178.84 162.112H1241.37L1282.94 35.1236C1282.59 33.3147 1282.94 31.5057 1283.65 30.0586Z" fill="#FCFEFF"/>
<path d="M1266.24 162.126H1321.31L1355.78 57.207H1300.71L1266.24 162.126Z" fill="#FCFEFF"/>
<path d="M1408.87 13.083C1407.09 8.74152 1403.89 5.48541 1399.63 3.3147C1395.01 1.14396 1389.68 0.0585938 1384.35 0.0585938H1353.08C1330.7 0.0585938 1316.13 10.9123 1309.02 32.2578L1304.41 46.3674H1423.08L1408.87 13.083Z" fill="#FCFEFF"/>
<path d="M1481.6 0.0585938L1447.49 104.616L1427.59 56.8592H1356.17L1394.54 149.116C1396.32 153.457 1399.52 156.713 1403.78 158.884C1408.76 161.054 1413.73 162.14 1419.06 162.14H1450.33C1472.72 162.14 1487.28 151.286 1494.39 129.941L1537.02 0.420377H1481.6V0.0585938Z" fill="#FCFEFF"/>
<path d="M1568.06 162.126H1630.24L1664.71 57.207H1602.17L1568.06 162.126Z" fill="#FCFEFF"/>
<path d="M1546.87 0.0585938L1531.59 46.7292H1539.77H1701.08H1741.59L1757.22 0.0585938H1546.87Z" fill="#FCFEFF"/>
<path d="M722.662 28.2781C724.794 9.46507 713.423 0.0585938 687.841 0.0585938H502.012L487.088 46.7292H651.601C654.088 46.7292 655.154 47.8149 654.796 49.6237V49.9854C654.796 50.3472 654.796 50.3472 654.796 50.7089L649.822 65.5422C649.11 68.075 646.624 69.8837 644.137 69.522H569.524L573.431 57.2214H510.896L476.43 162.14H538.964L556.729 107.872H592.261L618.555 162.14H687.841L688.554 159.969L662.259 107.51C673.272 106.786 683.935 102.807 693.173 95.9328C701.699 88.6968 707.738 79.2902 710.937 68.4367L720.529 39.4936C721.241 35.8757 721.954 32.2578 722.662 28.2781Z" fill="#FCFEFF"/>
<path d="M964.587 28.2781C966.72 9.46508 955.349 0.0585938 929.767 0.0585938H746.07L730.792 46.7292H892.814C895.301 46.7292 896.367 47.8149 896.013 49.6237V50.3472L876.112 111.49C875.404 114.022 872.918 115.469 870.427 115.469H794.747L813.936 56.8592H751.755L717.289 161.778H876.825C906.672 161.778 926.214 148.754 934.74 122.343L962.101 39.1318C963.521 35.8757 964.587 31.896 964.587 28.2781Z" fill="#FCFEFF"/>
<path d="M156.961 115.817H73.4618C70.9744 115.817 69.9086 114.731 70.2639 113.284C70.2639 112.923 70.2635 112.199 70.6188 111.837L88.7402 57.207H25.8494L2.75393 127.394C2.39862 129.203 1.6879 131.012 1.33259 132.459C0.977276 133.906 0.622006 135.715 0.26669 137.162C-1.8652 154.167 8.79434 162.488 31.8898 162.488H168.686C189.65 162.488 208.126 148.74 214.521 128.479L225.181 95.9184H162.646L156.961 115.817Z" fill="#FCFEFF"/>
<path d="M170.071 46.7292H178.954L172.559 66.2657H234.739L241.134 46.7292L243.977 38.4082C243.977 38.4082 243.977 38.4082 243.977 38.0464V37.3228C248.951 22.4895 240.779 6.57081 226.211 1.50575C223.724 0.782178 220.881 0.0585938 218.039 0.0585938H84.796C57.4368 0.0585938 40.0265 11.6358 32.5649 35.1521L28.6562 46.7292H170.071Z" fill="#FCFEFF"/>
<path d="M1578.92 227.008C1558.86 226.035 1539.58 227.593 1521.08 231.682C1502.58 235.772 1484.27 241.322 1466.16 248.333C1461.48 250.085 1457.88 249.891 1455.35 247.749C1453.01 245.606 1451.84 243.464 1451.84 241.322C1453.21 237.622 1455.64 234.603 1459.15 232.266C1499.07 212.792 1538.99 205.586 1578.92 210.65C1580.86 211.234 1582.42 212.695 1583.59 215.032C1584.95 217.174 1585.44 219.024 1585.05 220.582C1584.66 222.529 1584.08 224.185 1583.3 225.548C1582.52 226.716 1581.06 227.203 1578.92 227.008ZM1537.43 328.957C1537.43 331.099 1536.66 333.047 1535.1 334.799C1533.73 336.357 1531.98 337.331 1529.84 337.72C1525.94 338.305 1523.41 337.623 1522.24 335.676C1521.08 333.728 1520.39 331.489 1520.2 328.957C1520 315.325 1519.71 301.79 1519.32 288.353C1519.13 274.721 1518.54 261.089 1517.57 247.456C1517.57 246.677 1517.47 245.801 1517.28 244.827C1517.08 243.659 1517.08 242.588 1517.28 241.614C1517.47 240.446 1517.86 239.472 1518.45 238.693C1519.23 237.914 1520.39 237.33 1521.95 236.94C1526.43 236.161 1529.64 236.94 1531.59 239.277C1533.54 241.419 1534.51 243.562 1534.51 245.704C1536.07 259.725 1537.04 273.65 1537.43 287.476C1537.82 301.303 1537.82 315.13 1537.43 328.957ZM1688.21 270.826C1688.99 272.773 1688.21 274.721 1685.88 276.668C1683.54 278.421 1679.84 279.589 1674.78 280.173C1666.01 281.342 1657.06 282.608 1647.9 283.971C1638.75 285.139 1629.4 286.405 1619.86 287.769C1619.47 297.7 1619.47 307.632 1619.86 317.564C1624.34 317.564 1629.69 317.175 1635.93 316.396C1642.35 315.422 1648.88 314.254 1655.5 312.891C1662.12 311.527 1668.45 310.164 1674.48 308.801C1680.72 307.243 1685.97 305.977 1690.26 305.003C1692.4 304.419 1694.64 304.03 1696.98 303.835C1699.31 303.445 1701.36 303.445 1703.11 303.835C1705.06 304.03 1706.62 304.711 1707.79 305.88C1708.95 307.048 1709.54 308.704 1709.54 310.846C1709.54 311.43 1708.86 312.306 1707.49 313.475C1706.13 314.643 1704.38 315.909 1702.24 317.272C1700.29 318.441 1698.15 319.609 1695.81 320.778C1693.67 321.751 1691.72 322.53 1689.97 323.115C1677.89 327.009 1666.01 330.417 1654.33 333.339C1642.64 336.065 1631.25 337.526 1620.15 337.72C1613.72 337.915 1608.86 336.26 1605.55 332.754C1602.23 329.054 1600.48 323.796 1600.29 316.98C1599.9 307.438 1599.9 297.798 1600.29 288.061C1596.98 286.113 1595.32 283.387 1595.32 279.881C1595.71 276.181 1597.46 273.65 1600.58 272.286C1600.97 266.639 1601.26 260.991 1601.46 255.344C1601.65 249.501 1601.94 243.756 1602.33 238.109C1600.19 237.719 1598.24 236.648 1596.49 234.895C1594.93 233.143 1594.15 231.195 1594.15 229.053C1594.15 227.3 1594.54 225.742 1595.32 224.379C1596.1 222.821 1597.56 221.653 1599.7 220.874C1603.21 220.095 1607.49 219.219 1612.56 218.245C1617.62 217.271 1622.78 216.395 1628.04 215.616C1633.49 214.837 1638.65 214.155 1643.52 213.571C1648.58 212.987 1652.87 212.597 1656.37 212.402C1660.46 212.013 1664.36 212.402 1668.06 213.571C1671.95 214.739 1675.56 216.979 1678.87 220.29C1679.65 223.016 1679.06 225.061 1677.11 226.424C1675.36 227.787 1673.02 228.664 1670.1 229.053C1667.18 229.443 1663.68 229.929 1659.59 230.514C1655.5 230.903 1651.21 231.39 1646.73 231.974C1642.45 232.559 1638.07 233.143 1633.59 233.727C1629.3 234.116 1625.21 234.603 1621.32 235.188C1621.32 235.577 1621.32 236.064 1621.32 236.648C1621.51 237.038 1621.61 237.427 1621.61 237.817C1621.22 242.88 1620.93 247.943 1620.74 253.007C1620.54 258.07 1620.35 263.133 1620.15 268.197C1628.33 266.833 1636.7 265.665 1645.27 264.691C1653.84 263.523 1660.66 262.744 1665.72 262.354C1669.81 261.965 1673.8 262.452 1677.7 263.815C1681.59 265.178 1685.1 267.515 1688.21 270.826ZM1735.58 343.563C1734.61 346.873 1733.34 349.892 1731.79 352.618C1730.23 355.15 1728.57 356.611 1726.82 357C1723.12 357.974 1720.3 357.39 1718.35 355.247C1716.4 353.105 1715.62 350.379 1716.01 347.068C1717.57 335.383 1720.1 323.115 1723.61 310.261C1727.11 297.214 1731.2 284.263 1735.88 271.41C1740.55 258.362 1745.61 245.801 1751.07 233.727C1756.71 221.458 1762.46 210.358 1768.3 200.426C1769.27 198.868 1770.34 197.991 1771.51 197.797C1772.88 197.407 1774.04 197.407 1775.02 197.797C1775.99 197.018 1777.16 196.336 1778.52 195.752C1779.89 195.168 1781.25 194.876 1782.61 194.876C1783.2 194.876 1783.78 194.973 1784.37 195.168C1785.15 195.362 1785.92 195.947 1786.7 196.92C1787.48 197.894 1788.36 199.355 1789.33 201.302C1790.5 203.055 1791.86 205.684 1793.42 209.189C1796.15 219.121 1799.26 229.345 1802.77 239.861C1806.47 250.378 1810.27 260.894 1814.16 271.41C1814.75 271.215 1815.23 271.118 1815.62 271.118C1816.21 270.923 1816.79 270.728 1817.38 270.534C1819.52 270.339 1821.95 270.436 1824.68 270.826C1827.4 271.215 1829.25 272.578 1830.23 274.915C1831.4 277.837 1831.2 280.368 1829.64 282.51C1828.09 284.653 1825.26 286.795 1821.17 288.937C1823.7 295.169 1826.24 301.303 1828.77 307.34C1831.3 313.183 1833.93 318.928 1836.66 324.575C1836.85 325.549 1837.14 327.107 1837.53 329.249C1837.92 331.196 1838.12 333.241 1838.12 335.383C1838.31 337.331 1838.21 339.181 1837.82 340.934C1837.43 342.686 1836.66 343.855 1835.49 344.439C1834.12 345.023 1832.66 344.926 1831.1 344.147C1829.74 343.368 1828.38 342.394 1827.02 341.226C1825.65 339.863 1824.39 338.499 1823.22 337.136C1822.24 335.578 1821.47 334.215 1820.88 333.047C1817.57 326.62 1814.36 320.193 1811.24 313.767C1808.32 307.146 1805.5 300.524 1802.77 293.903C1794.59 295.461 1785.63 296.824 1775.89 297.993C1766.35 299.161 1756.91 299.94 1747.56 300.33C1745.42 307.73 1743.28 315.033 1741.13 322.238C1739.19 329.249 1737.34 336.357 1735.58 343.563ZM1777.06 220.874C1768.11 240.933 1760.32 260.991 1753.69 281.05C1766.74 280.66 1780.67 279.005 1795.47 276.084C1788.46 258.362 1782.32 239.959 1777.06 220.874ZM2003.73 354.079C2001.59 354.079 1999.35 352.424 1997.02 349.113C1994.87 345.802 1993.7 342.589 1993.51 339.473C1991.95 328.178 1990 315.033 1987.67 300.037C1985.53 284.847 1982.6 266.931 1978.9 246.288C1973.06 257.388 1967.32 268.391 1961.67 279.297C1956.02 290.203 1950.37 301.108 1944.73 312.014C1941.22 318.83 1937.62 322.238 1933.92 322.238C1928.47 322.238 1924.18 319.414 1921.07 313.767C1914.25 303.835 1907.14 294.585 1899.74 286.016C1892.54 277.252 1885.04 268.586 1877.25 260.017C1876.86 273.065 1876.96 285.918 1877.54 298.577C1878.32 311.04 1879.58 323.212 1881.34 335.091C1881.73 337.234 1881.43 339.181 1880.46 340.934C1879.68 342.492 1878.81 343.465 1877.83 343.855C1875.11 344.829 1872.38 344.244 1869.65 342.102C1866.93 339.96 1865.27 337.623 1864.69 335.091C1862.93 328.081 1861.67 320.291 1860.89 311.722C1860.11 303.153 1859.53 294.487 1859.14 285.724C1858.94 276.96 1858.84 268.294 1858.84 259.725C1858.84 251.157 1858.94 243.367 1859.14 236.356C1859.14 228.566 1861.67 224.671 1866.73 224.671C1869.85 224.671 1872.48 225.84 1874.62 228.177C1876.76 230.319 1877.93 233.435 1878.12 237.524C1887.86 247.262 1897.01 257.291 1905.58 267.612C1914.35 277.739 1922.82 288.061 1931 298.577C1937.81 286.308 1944.73 273.747 1951.74 260.894C1958.75 247.846 1966.64 235.188 1975.4 222.919C1975.79 220.776 1976.86 218.634 1978.61 216.492C1980.37 214.155 1982.31 212.597 1984.45 211.818C1986.6 211.039 1988.84 211.916 1991.17 214.447C1993.51 216.979 1995.07 219.9 1995.85 223.211C1999.16 242.88 2001.98 262.549 2004.32 282.218C2006.85 301.887 2009.28 321.557 2011.62 341.226C2012.01 344.926 2011.33 348.042 2009.58 350.574C2007.82 352.91 2005.88 354.079 2003.73 354.079Z" fill="#00BE9E"/>
</svg>
